<svg width="33" height="32" viewBox="0 0 33 32" fill="none" xmlns="http://www.w3.org/2000/svg">
<g clip-path="url(#clip0_13_9)">
<path fill-rule="evenodd" clip-rule="evenodd" d="M16.5 0C7.38398 0 0 7.34278 0 16.4079C0 23.6601 4.7302 29.8042 11.2836 31.9799C12.1041 32.1309 12.4079 31.6273 12.4079 31.1841C12.4079 30.7913 12.3978 29.7639 12.3877 28.3941C7.79926 29.3812 6.82689 26.1983 6.82689 26.1983C6.07735 24.3047 4.99355 23.8011 4.99355 23.8011C3.49447 22.7838 5.10497 22.8039 5.10497 22.8039C6.75598 22.9248 7.6372 24.4961 7.6372 24.4961C9.10589 27.0041 11.4963 26.2789 12.4383 25.8558C12.5902 24.7982 13.0157 24.073 13.4816 23.6601C9.81492 23.2471 5.96593 21.837 5.96593 15.5518C5.96593 13.7589 6.60405 12.2984 7.66759 11.1501C7.4954 10.7372 6.92818 9.06516 7.82965 6.80894C7.82965 6.80894 9.21731 6.36575 12.3674 8.49103C13.6842 8.12842 15.0921 7.94712 16.5 7.93705C17.8978 7.93705 19.3158 8.12842 20.6326 8.49103C23.7827 6.36575 25.1703 6.80894 25.1703 6.80894C26.0718 9.06516 25.5046 10.7372 25.3324 11.1501C26.3858 12.2984 27.0239 13.7589 27.0239 15.5518C27.0239 21.8571 23.1648 23.237 19.488 23.65C20.0755 24.1536 20.6123 25.1608 20.6123 26.6918C20.6123 28.8876 20.5921 30.6503 20.5921 31.1942C20.5921 31.6374 20.8858 32.141 21.7265 31.9799C28.2799 29.8042 33 23.6601 33 16.418C33 7.34277 25.616 0 16.5 0Z" fill="#FDFDFD"/>
</g>
<defs>
<clipPath id="clip0_13_9">
<rect width="33" height="32" fill="white"/>
</clipPath>
</defs>
</svg>
